PathFileType	4	(X/Y/Z)	C:/Users/beibeiliu/ov580/test_trc\sequence.9_training_dense_right.trc
DataRate	CameraRate	NumFrames	NumMarkers	Units	OrigDataRate	OrigDataStartFrame	OrigNumFrames
120	120	25	19	mm	120	86	200
Frame#	Time	ThumbCMC			ThumbMCP			ThumbIP			ThumbTip			IndexMCP			IndexPIP			IndexTip			MiddleMCP			MiddlePIP			MiddleTip			RingMCP			RingPIP			RingTip			PinkyMCP			PinkyPIP			PinkyTip			BackHand1			BackHand2			BackHand3	
		X0	Y0	Z0	X1	Y1	Z1	X2	Y2	Z2	X3	Y3	Z3	X4	Y4	Z4	X5	Y5	Z5	X6	Y6	Z6	X7	Y7	Z7	X8	Y8	Z8	X9	Y9	Z9	X10	Y10	Z10	X11	Y11	Z11	X12	Y12	Z12	X13	Y13	Z13	X14	Y14	Z14	X15	Y15	Z15	X16	Y16	Z16	X17	Y17	Z17	X18	Y18	Z18	
85	0.708333	169.963	2.08916	126.658	151.159	14.7421	105.112	143.03	19.2558	79.5499	134.99	19.3218	57.3498	178.496	-13.083	58.0395	153.936	-7.90841	38.1345	122.673	-1.78599	46.7613	182.943	-36.5861	51.2102	168.778	-39.435	27.7338	137.738	-30.4304	9.28219	177.181	-59.121	59.2212	169.423	-57.3735	33.9515	144.798	-50.9226	13.052	165.697	-73.0044	73.0313	159.01	-78.7751	49.6153	144.237	-69.1879	24.6147	184.004	-55.142	112.591	182.765	-56.7461	142.927	193.334	-30.0494	125.689	
86	0.716667	172.459	-4.39337	126.612	152.308	8.83852	107.386	144.37	15.9476	78.8686	135.824	12.9906	58.5048	180.068	-20.5109	55.032	157.822	-16.1183	39.6804	122.903	-11.3775	48.3799	185.389	-46.8626	53.3739	169.726	-46.2666	25.4759	140.007	-36.183	10.1417	179.973	-66.3319	57.0361	170.133	-62.9505	30.6542	147.966	-52.6261	11.9646	167.964	-79.8644	73.4425	163.042	-83.8099	46.9365	149.606	-79.4945	24.5844	185.377	-64.3798	109.899	188.13	-66.7326	140.848	197.715	-37.2855	121.677	
87	0.725	176.177	-13.1477	128.345	157.455	-0.73627	102.065	147.795	8.18375	77.2016	140.214	2.53025	53.4557	183.974	-29.8178	54.4695	161.433	-23.5116	38.6164	131.377	-15.0558	43.8783	190.096	-52.9723	49.7058	175.701	-50.1052	25.1527	146.82	-46.412	9.90384	185.196	-71.6224	56.4737	173.347	-72.8085	29.4501	153.532	-62.3828	11.1848	172.031	-89.7775	71.8039	166.478	-91.4453	46.2822	149.845	-87.7217	21.6172	191.073	-74.3084	110.868	190.063	-72.9292	137.566	200.023	-44.7832	123.78	
88	0.733333	180.208	-18.0232	128.356	160.429	-3.27873	103.478	152.638	0.812883	79.1062	145.152	-4.68673	54.5907	189.358	-33.1243	54.6634	162.82	-27.0467	36.5484	133.856	-18.7902	44.929	195.034	-59.2431	48.5067	181.671	-56.1843	24.0828	152.634	-46.987	6.69441	191.473	-71.6968	52.987	179.956	-72.5965	25.8304	156.215	-66.3585	6.22045	180.047	-90.227	69.8501	172.622	-95.7885	41.5697	156.803	-88.5235	16.971	196.307	-74.7698	104.54	197.39	-75.7382	133.799	206.863	-47.5086	120.317	
89	0.741667	181.837	-18.3571	125.867	160.978	-6.35472	106.512	153.064	3.45178	80.4607	146.882	-1.48694	59.7794	193.429	-26.0206	57.3919	171.53	-18.7688	39.6105	136.746	-21.378	44.5412	200.704	-51.7784	51.7595	186.934	-46.453	23.0309	157.584	-39.4543	7.72245	198.838	-66.677	53.3208	188.546	-68.7077	28.1334	168.666	-57.8396	7.85554	187.548	-89.4321	67.1116	183.979	-89.3693	42.3999	169.474	-85.6505	17.9113	201.806	-75.7963	108.073	200.969	-78.4786	134.131	211.472	-43.8073	120.178	
90	0.75	176.859	-13.2854	137.016	156.933	-0.870032	112.566	149.5	9.25336	87.0953	143.546	8.33946	64.3671	195.385	-8.23197	65.2435	173.172	-8.85623	47.1925	142.499	-10.7072	48.4925	206.6	-35.6814	60.0026	193.81	-28.6768	30.9319	168.225	-26.4712	13.062	205.764	-54.6994	60.6178	196.188	-49.0318	29.7634	174.608	-42.6991	10.3614	196.743	-74.4514	69.9802	192.94	-76.0258	41.9076	180.769	-67.853	21.0549	208.12	-62.3179	109.234	204.941	-68.0331	142.672	211.573	-33.6268	129.07	
91	0.758333	171.586	-13.7723	143.495	150.371	0.805514	119.886	141.879	7.8583	100.254	138.005	13.732	74.9667	193.301	2.0039	75.9513	168.906	5.99816	55.3065	141.478	-4.71807	54.6619	208.205	-17.2977	67.7331	195.537	-10.6229	37.0529	170.882	-10.4582	19.0055	211.711	-35.0295	66.7664	203.943	-32.0506	35.6766	184.326	-24.6097	18.8355	206.036	-62.0437	73.3447	202.661	-54.9761	45.0806	190.751	-48.3616	24.768	212.715	-51.8405	115.006	208.348	-62.8652	145.362	206.354	-26.4478	140.452	
92	0.766667	164.561	-9.39983	149.163	145.819	-2.48038	126.619	134.442	12.0117	107	135.2	14.5855	82.1051	187.589	16.5395	87.9331	165.904	17.7705	63.8194	141.258	0.443921	59.9892	207.676	-1.13482	78.1039	195.809	7.3143	49.092	175.534	1.06098	27.4101	212.869	-18.4307	76.0765	210.112	-14.7488	48.8086	185.261	-10.6649	23.0851	213.073	-44.0337	76.2748	210.408	-37.8067	55.119	195.238	-29.2337	29.5551	213.875	-41.4759	123.11	209.635	-56.4875	151.218	200.792	-19.7283	147.593	
93	0.775	159.877	-6.76611	155.781	137.687	2.04949	134.382	130.246	17.821	110.419	125.465	25.0691	89.4985	183.458	25.9513	97.5714	163.762	29.9159	74.1605	139.632	7.68403	64.9519	203.687	12.375	89.6117	194.258	17.8044	55.3336	170.144	16.3129	35.0474	212.067	-6.04183	82.7546	208.288	0.146394	57.0103	189.009	6.02676	35.7452	211.972	-30.8125	83.5734	211.057	-24.6771	58.4435	194.968	-15.9831	35.3054	213.679	-32.3498	127.163	205.341	-46.3344	158.109	199.395	-10.1765	153.047	
94	0.783333	155.485	-4.74619	163.27	133.009	4.91688	141.985	122.325	22.1546	118.054	121.362	27.9546	92.9305	179.563	33.0931	102.786	158.871	36.0245	79.0252	134.975	22.01	71.1811	200.682	21.7943	94.1436	189.557	29.1582	63.4613	165.683	26.0354	41.3683	210.693	3.33188	88.4446	205.356	9.61096	61.8146	186.281	13.8731	38.8575	207.811	-20.1057	91.7523	207.769	-11.5688	65.1505	191.39	-3.6717	39.1586	209.767	-24.1384	132.729	205.966	-38.4628	156.641	194.834	-4.38211	163.225	
95	0.791667	152.274	1.04743	166.663	129.244	7.5283	145.341	118.385	21.8799	119.26	119.408	24.6845	97.8297	176.664	39.1655	112.045	157.301	41.0633	85.5833	133.919	27.0947	76.0042	199.63	22.944	99.4928	188.39	34.959	70.385	165.73	30.4134	47.438	207.298	8.64514	95.8004	202.59	17.1036	67.9027	182.867	20.8845	44.5297	207.835	-14.0221	94.4519	205.062	-6.81817	66.5856	190.159	-0.451954	45.8321	209.383	-17.4409	139.56	206.374	-34.3797	162.341	195.477	-1.29707	162.395	
96	0.8	154.026	1.38711	168.466	135.004	3.37095	141.174	122.156	13.4128	121.29	120.127	18.4711	96.0955	178.049	39.1486	113.569	159.753	42.3829	90.8916	139.291	23.7651	75.9307	199.502	27.8568	99.208	190.346	31.6611	71.0307	167.342	31.1483	51.9828	209.431	5.41054	97.1946	201.662	17.2883	66.7174	180.574	23.992	48.0843	211.454	-18.9001	96.3779	204.757	-4.31746	71.3321	193.897	-0.421379	48.5856	210.048	-18.3925	143.649	207.73	-32.0527	166.182	196.556	-2.41649	169.537	
97	0.808333	156.33	-0.130081	168.745	138.796	0.827387	142.625	123.468	11.2544	121.159	126.166	12.753	94.3066	184.361	33.867	112.356	164.183	35.9833	89.6267	141.379	20.4363	77.6668	204.012	25.2895	100.301	193.15	31.2109	74.3458	168.035	26.5578	51.5785	213.124	4.85398	95.4351	207.609	10.6612	69.4111	186.039	15.1156	47.5843	212.172	-18.9246	98.8494	208.217	-11.8569	69.4478	193.282	-4.43989	47.1451	214.417	-21.5765	141.853	212.128	-34.517	167.546	199.569	-2.0287	169.007	
98	0.816667	157.567	-3.41477	172.122	136.896	-0.576168	146.448	128.835	8.50878	121.451	126.625	13.4171	94.0527	186.2	30.0574	111.628	167.468	31.2981	87.7826	139.719	19.8997	77.6394	206.754	19.1361	99.8289	193.883	26.4661	70.7629	170.82	24.6649	53.6712	213.817	-1.29658	98.3615	208.583	7.66359	70.7707	188.054	11.9327	49.7087	214.49	-27.1172	98.5619	208.796	-11.4712	71.9953	193.625	-7.07788	50.6536	213.181	-23.5432	145.297	211.663	-40.4655	169.85	199.747	-2.61033	167.879	
99	0.825	159.211	-3.37288	170.891	139.396	-0.795412	145.733	128.956	12.2223	120.778	126.832	17.1369	95.302	184.563	30.1092	112.735	167.588	33.1383	89.524	140.663	16.5574	77.3471	205.329	18.8916	100.206	195.193	23.0607	72.839	169.298	22.2369	52.3442	213.274	-2.24112	96.1171	207.662	4.17532	67.0376	187.195	7.59903	46.5643	215.109	-27.806	95.9193	210.027	-19.83	69.4539	194.853	-8.62658	48.619	213.406	-26.5697	140.774	212.634	-43.9189	167.344	199.249	-7.3958	167.538	
100	0.833333	161.521	-5.14969	171.595	139.151	3.32923	148.681	128.544	14.4134	126.967	131.917	18.8955	99.4277	187.407	28.4329	111.673	166.879	34.1171	87.9309	145.082	19.6429	77.6838	206.037	15.4941	100.389	195.758	22.4212	71.0709	171.592	22.1282	52.403	214.175	-3.79875	97.9534	208.614	7.44498	69.0622	184.929	11.8069	46.1762	212.653	-27.4344	98.81	211.325	-16.5584	74.0706	195.302	-10.0492	48.8267	212.077	-26.138	143.288	212.348	-44.6423	165.649	202.441	-8.43111	167.778	
101	0.841667	163.109	0.893562	172.491	144.801	6.46176	148.107	132.145	23.3817	127.533	130.117	28.3871	106.889	187.582	37.7991	116.643	169.659	42.1505	94.7437	143.933	26.2409	81.56	209.108	21.3915	102.255	198.835	30.0545	77.7028	171.478	30.6013	54.1649	215.414	4.61443	101.041	210.51	13.502	72.7722	189.439	20.6533	51.2529	212.422	-21.5533	101.727	211.763	-10.2515	74.3442	198.335	-0.770033	51.1299	213.948	-26.7344	145.818	210.837	-41.4458	168.932	204.889	-7.73824	168.818	
102	0.85	166.507	-0.1232	175.743	145.038	10.5253	153.896	133.852	28.2646	132.478	133.781	32.8193	112.309	191.827	41.3539	124.786	174.257	48.5563	101.319	148.559	36.1708	87.237	212.453	27.584	110.811	202.429	38.9523	81.5956	175.927	39.2543	58.0252	218.613	8.95544	106.37	215.095	23.5822	80.0801	195.547	32.1943	57.9135	218.156	-11.6504	102.85	216.564	-1.15637	78.7308	202.333	8.91356	56.6004	218.147	-17.3107	146.136	215.007	-39.9607	171.017	206.829	-5.71163	173.275	
103	0.858333	164.007	3.84371	184.101	146.869	14.9196	159.31	138.542	32.2592	139.907	137.899	45.9405	116.126	193.706	50.0159	132.384	172.922	59.6642	111.825	148.661	48.9066	97.6453	215.424	36.5658	120.77	205.18	54.1445	95.4277	182.908	58.0631	73.4521	222.867	23.4569	115.435	220.325	35.9125	91.0496	201.755	45.8254	68.5677	223.95	-1.29289	108.785	222.994	12.8198	88.3851	208.511	25.5696	66.026	221.147	-12.576	152.685	215.947	-33.0872	175.77	205.06	1.38245	183.849	
104	0.866667	164.615	3.76072	187.271	143.772	22.6866	165.563	139.356	39.6988	145.764	140.399	50.895	125.837	191.622	60.0925	150.189	173.038	71.213	124.886	153.944	56.6871	106.277	215.881	52.3147	135.608	209.867	64.7264	108.523	187.884	68.5045	84.4391	225.688	32.9438	126.393	221.876	52.4877	103.474	203.492	58.4603	78.8814	226.062	8.79914	120.344	226.343	25.2867	96.5462	207.805	42.4686	76.1858	220.858	-6.88592	163.758	214.862	-30.0855	180.337	203.518	1.46679	188.45	
105	0.875	161.652	10.2003	192.383	141.304	27.0963	170.289	134.73	47.6829	150.8	141.058	59.0579	129.077	189.276	67.9089	157.455	172.815	78.3655	135.49	153.711	66.6057	116.239	214.964	57.9627	144.285	210.433	73.1919	120.671	186.07	78.349	95.1194	223.883	44.751	135.044	219.841	62.5551	112.553	203.343	70.3247	91.8217	225.754	18.8738	127.221	224.223	39.2331	104.424	207.696	51.0266	85.9588	218.968	2.10118	167.6	212.765	-21.8946	185.859	199.321	10.3198	194.752	
106	0.883333	155.51	15.4453	197.638	137.595	31.4947	174.839	132.726	52.4128	154.488	137.496	61.3814	134.394	188.699	70.5837	159.272	174.327	81.7689	138.439	150.545	69.586	118.643	213.414	61.9789	145.918	206.668	79.7273	121.395	180.323	83.7999	97.0039	221.203	49.1497	139.524	218.076	65.9914	117.432	198.649	76.1935	97.8198	222.591	22.0976	130.086	221.519	43.4988	105.608	205.256	54.6008	88.3992	219.494	4.78182	168.804	212.092	-20.8655	185.611	198.544	14.5713	197.323	
107	0.891667	152.904	17.333	198.3	138.72	33.4749	173.006	131.343	55.4817	155.103	133.66	68.0891	134.978	185.307	75.006	163.65	166.396	87.8797	140.744	144.126	72.0829	121.265	209.986	68.5141	149.049	201.987	84.5386	125.564	181.608	85.7005	100.521	217.359	52.196	141.643	215.108	70.1139	114.561	193.637	79.6194	99.2142	221.038	29.0675	130.439	220.818	46.8112	111.211	199.949	63.0808	93.4483	215.061	8.1152	169.731	208.721	-12.7411	187.351	194.992	15.954	199.847	
108	0.9	152.772	18.3058	198.064	133.796	38.5179	174.672	123.762	57.8578	158.399	131.131	69.9476	136.177	182.959	76.3039	165.196	163.375	89.0596	139.752	140.482	75.3063	123.628	204.938	67.7619	154.435	201.611	85.225	125.62	176.306	90.9764	103.993	215.841	56.8771	141.46	212.707	72.9928	116.636	188.636	81.6774	96.557	218.54	34.833	131.519	216.705	51.0895	113.854	196.33	65.2569	92.804	211.514	9.94169	170.818	205.523	-9.21534	190.146	193.939	19.2543	201.965	
109	0.908333	149.781	23.3541	200.773	133.291	37.9649	177.15	124.009	60.3722	156.929	129.592	71.8051	135.774	180.011	79.2726	169.044	163.979	92.1444	145.095	139.271	77.3415	124.378	206.093	72.7829	151.048	197.072	91.5659	130.368	176.509	93.207	104.266	215.432	56.8846	141.995	212.536	74.4371	119.982	187.797	83.3617	100.533	215.722	37.6552	136.36	213.842	55.6884	113.056	192.451	68.0289	97.8088	209.344	14.5709	173.786	206.378	-8.24286	190.075	190.527	20.3225	201.995	
